<?xml version="1.0" standalone="no"?>
<!DOCTYPE svg PUBLIC "-//W3C//DTD SVG 20010904//EN"
 "http://www.w3.org/TR/2001/REC-SVG-20010904/DTD/svg10.dtd">
<svg version="1.0" xmlns="http://www.w3.org/2000/svg"
 width="559.000000pt" height="559.000000pt" viewBox="0 0 559.000000 559.000000"
 preserveAspectRatio="xMidYMid meet">
<metadata>
Created by potrace 1.11, written by Peter Selinger 2001-2013
</metadata>
<g transform="translate(0.000000,559.000000) scale(0.100000,-0.100000)"
fill="#000000" stroke="none">
<path d="M2767 5524 c-1 -1 -31 -4 -67 -7 -96 -9 -174 -25 -254 -54 -132 -47
-148 -56 -561 -301 -88 -52 -173 -103 -190 -112 -16 -10 -154 -91 -305 -180
-151 -90 -360 -213 -463 -274 -103 -61 -200 -118 -215 -127 -15 -9 -106 -62
-202 -119 -96 -57 -177 -104 -179 -106 -5 -4 -2 -1243 3 -1269 2 -11 7 -40 11
-65 4 -25 17 -67 29 -94 l21 -49 -27 -56 c-19 -37 -31 -83 -37 -136 -9 -87 -6
-1158 3 -1174 4 -5 19 -16 34 -24 42 -21 123 -68 164 -94 21 -12 40 -23 42
-23 2 0 69 -37 148 -83 78 -46 150 -86 158 -90 8 -4 29 -15 45 -26 36 -22 229
-132 305 -174 30 -17 88 -50 128 -74 41 -24 75 -43 77 -43 1 0 64 -36 140 -80
76 -44 138 -80 140 -80 1 0 42 -23 91 -51 49 -29 105 -61 124 -72 19 -10 64
-36 100 -57 36 -20 85 -48 110 -62 77 -43 294 -167 310 -178 50 -33 224 -111
270 -121 73 -15 192 -6 263 21 32 12 145 72 250 132 213 123 503 290 557 320
79 46 654 376 775 446 72 41 189 109 260 150 72 41 146 83 165 94 19 12 52 30
73 42 21 11 46 26 55 31 9 6 43 25 75 44 62 35 62 38 7 69 -19 11 -91 52 -160
92 -69 40 -138 80 -155 90 -16 9 -151 88 -298 174 -148 86 -273 156 -278 156
-9 0 -163 -88 -794 -455 -154 -89 -381 -221 -504 -292 l-225 -130 -144 83
c-80 46 -147 84 -149 84 -2 0 -22 12 -45 26 -23 14 -60 36 -82 49 -23 12 -90
50 -151 85 -60 35 -139 80 -175 100 -36 20 -126 72 -200 115 -190 109 -196
113 -233 134 -102 57 -323 184 -326 187 -6 5 -7 344 -1 344 3 0 31 -16 63 -35
32 -19 60 -35 62 -35 2 0 38 -20 79 -45 42 -25 79 -45 82 -45 3 0 25 -13 48
-30 24 -16 46 -27 48 -24 3 2 11 -2 18 -11 7 -8 16 -15 21 -15 4 0 65 -34 134
-75 70 -41 128 -75 130 -75 2 0 106 -59 231 -131 126 -72 252 -144 279 -159
28 -15 108 -61 180 -102 l130 -75 30 17 c16 10 170 98 340 197 171 99 411 239
535 310 124 72 239 139 257 149 17 11 57 34 90 53 239 138 596 345 686 398 59
34 110 63 114 63 3 0 14 6 22 14 9 7 39 26 66 41 85 46 325 186 325 189 0 4
-100 66 -105 66 -3 0 -35 18 -72 40 -38 22 -75 45 -83 49 -8 5 -162 95 -342
200 l-328 191 -97 -57 c-54 -31 -111 -64 -128 -73 -16 -10 -169 -99 -340 -197
-786 -456 -954 -553 -959 -553 -3 0 -58 31 -123 69 -102 59 -613 352 -699 401
-91 52 -564 325 -594 344 -19 11 -37 21 -40 21 -3 0 -18 9 -34 21 l-29 21 -1
161 -1 160 50 -27 c28 -16 210 -119 405 -231 195 -112 369 -211 385 -220 17
-9 145 -82 285 -162 140 -80 272 -155 293 -167 21 -12 49 -28 62 -37 27 -17 6
-27 235 106 69 40 141 81 160 92 19 11 40 24 45 28 6 4 30 18 55 32 25 14 203
116 395 228 193 111 364 211 380 220 63 35 1033 599 1105 642 41 24 84 48 95
52 17 7 18 9 5 17 -25 16 -182 109 -225 133 -87 50 -115 66 -255 148 -80 47
-161 94 -180 105 -19 11 -141 82 -270 158 -129 76 -251 146 -270 157 -19 11
-75 44 -125 73 -49 29 -106 62 -125 73 -19 10 -129 75 -245 142 -336 197 -445
238 -688 259 -43 3 -79 6 -80 5z"/>
</g>
</svg>
